<svg width="35" height="35" viewBox="0 0 35 35" fill="none" xmlns="http://www.w3.org/2000/svg">
<path d="M24.7916 26.25C23.1728 26.25 21.8749 27.5479 21.8749 29.1667C21.8749 29.9402 22.1822 30.6821 22.7292 31.229C23.2762 31.776 24.018 32.0833 24.7916 32.0833C25.5651 32.0833 26.307 31.776 26.854 31.229C27.401 30.6821 27.7083 29.9402 27.7083 29.1667C27.7083 28.3931 27.401 27.6512 26.854 27.1043C26.307 26.5573 25.5651 26.25 24.7916 26.25ZM1.45825 2.91666V5.83332H4.37492L9.62492 16.9021L7.64158 20.475C7.42283 20.8833 7.29158 21.3646 7.29158 21.875C7.29158 22.6485 7.59888 23.3904 8.14586 23.9374C8.69284 24.4844 9.4347 24.7917 10.2083 24.7917H27.7083V21.875H10.8208C10.7241 21.875 10.6313 21.8366 10.563 21.7682C10.4946 21.6998 10.4562 21.6071 10.4562 21.5104C10.4562 21.4375 10.4708 21.3792 10.4999 21.3354L11.8124 18.9583H22.677C23.7708 18.9583 24.7332 18.3458 25.2291 17.4562L30.4499 8.02082C30.552 7.78749 30.6249 7.53957 30.6249 7.29166C30.6249 6.90488 30.4713 6.53395 30.1978 6.26046C29.9243 5.98697 29.5534 5.83332 29.1666 5.83332H7.59784L6.227 2.91666M10.2083 26.25C8.5895 26.25 7.29158 27.5479 7.29158 29.1667C7.29158 29.9402 7.59888 30.6821 8.14586 31.229C8.69284 31.776 9.4347 32.0833 10.2083 32.0833C10.9818 32.0833 11.7237 31.776 12.2706 31.229C12.8176 30.6821 13.1249 29.9402 13.1249 29.1667C13.1249 28.3931 12.8176 27.6512 12.2706 27.1043C11.7237 26.5573 10.9818 26.25 10.2083 26.25Z" fill="#FFC107"/>
</svg>
