<svg width="31" height="25" viewBox="0 0 31 25" fill="none" xmlns="http://www.w3.org/2000/svg">
<path d="M3.83341 24.1667C3.03133 24.1667 2.34494 23.8813 1.77425 23.3106C1.20355 22.7399 0.91772 22.0531 0.916748 21.25V3.75001C0.916748 2.94793 1.20258 2.26154 1.77425 1.69084C2.34591 1.12015 3.0323 0.834316 3.83341 0.833344H27.1667C27.9688 0.833344 28.6557 1.11918 29.2274 1.69084C29.799 2.26251 30.0844 2.9489 30.0834 3.75001V21.25C30.0834 22.0521 29.7981 22.739 29.2274 23.3106C28.6567 23.8823 27.9698 24.1677 27.1667 24.1667H3.83341ZM15.5001 13.9583L3.83341 6.66668V21.25H27.1667V6.66668L15.5001 13.9583ZM15.5001 11.0417L27.1667 3.75001H3.83341L15.5001 11.0417ZM3.83341 6.66668V3.75001V21.25V6.66668Z" fill="#FFC107"/>
</svg>
